<svg xmlns="http://www.w3.org/2000/svg" viewBox="0 0 100 100">
  <rect width="100" height="100" rx="12" fill="#0a0a0f"/>
  <circle cx="50" cy="40" r="16" fill="none" stroke="#00ffff" stroke-width="3"/>
  <line x1="50" y1="16" x2="50" y2="22" stroke="#00ffff" stroke-width="2.5" stroke-linecap="round"/>
  <line x1="50" y1="58" x2="50" y2="64" stroke="#00ffff" stroke-width="2.5" stroke-linecap="round"/>
  <line x1="26" y1="40" x2="32" y2="40" stroke="#00ffff" stroke-width="2.5" stroke-linecap="round"/>
  <line x1="68" y1="40" x2="74" y2="40" stroke="#00ffff" stroke-width="2.5" stroke-linecap="round"/>
  <line x1="33" y1="23" x2="37" y2="27" stroke="#00ffff" stroke-width="2.5" stroke-linecap="round"/>
  <line x1="63" y1="53" x2="67" y2="57" stroke="#00ffff" stroke-width="2.5" stroke-linecap="round"/>
  <line x1="33" y1="57" x2="37" y2="53" stroke="#00ffff" stroke-width="2.5" stroke-linecap="round"/>
  <line x1="63" y1="27" x2="67" y2="23" stroke="#00ffff" stroke-width="2.5" stroke-linecap="round"/>
  <path d="M35 65 Q40 58 50 60 Q58 58 65 65" fill="none" stroke="#ff00ff" stroke-width="2.5" stroke-linecap="round"/>
  <path d="M38 72 Q44 67 50 69 Q56 67 62 72" fill="none" stroke="#ff00ff" stroke-width="2.5" stroke-linecap="round"/>
  <rect x="38" y="86" width="24" height="8" rx="2" fill="none" stroke="#00ffff" stroke-width="2"/>
</svg>
